<svg xmlns="http://www.w3.org/2000/svg" width="163.32" height="54.113" viewBox="25.68 32.028 163.32 54.113"><g data-name="アートワーク 7"><g data-name="グループ 23067"><g data-name="グループ 23065"><g data-name="グループ 23064"><path d="M101.2 47.558c0 1.052-.216 1.967-.647 2.745-.431.78-1 1.42-1.704 1.926-.706.505-1.52.883-2.446 1.137a10.9 10.9 0 0 1-2.873.378c-.968 0-1.931-.068-2.888-.204a13.493 13.493 0 0 1-2.794-.71l.156-2.937a8.99 8.99 0 0 0 2.573.979c.894.19 1.815.284 2.762.284.57 0 1.116-.063 1.642-.19a3.976 3.976 0 0 0 1.39-.615c.399-.284.72-.647.962-1.089.243-.442.364-.978.364-1.61 0-.442-.111-.836-.332-1.184a3.759 3.759 0 0 0-.883-.947 9.373 9.373 0 0 0-1.216-.789 26.9 26.9 0 0 0-1.326-.679l-2.145-1.072c-.57-.274-1.101-.573-1.595-.9a6.608 6.608 0 0 1-1.294-1.105 4.678 4.678 0 0 1-.868-1.405c-.211-.525-.316-1.125-.316-1.798 0-1.031.231-1.91.695-2.636a5.709 5.709 0 0 1 1.799-1.784 8.019 8.019 0 0 1 2.462-1.01 11.96 11.96 0 0 1 2.714-.315c.8 0 1.595.052 2.383.158.79.105 1.563.273 2.32.505l-.19 2.778a7.79 7.79 0 0 0-2.153-.664 14.104 14.104 0 0 0-2.249-.19c-.507 0-1.02.048-1.536.143a4.662 4.662 0 0 0-1.41.489 2.992 2.992 0 0 0-1.03.915c-.264.38-.396.863-.396 1.452 0 .4.095.753.286 1.058.189.306.431.584.728.836.295.253.638.48 1.028.68.39.2.776.394 1.156.584l2.249 1.072c.633.295 1.229.611 1.789.947.559.337 1.05.732 1.472 1.184.422.453.754.968.997 1.546.242.58.365 1.259.365 2.037Z" fill="#142a4d" fill-rule="evenodd" data-name="パス 33558"/><path d="m123.155 53.397-2.02-5.524h-9.753l-2.083 5.524h-3.346l8.206-21.054h4.325l8.27 21.054h-3.599Zm-6.88-18.592-4.041 10.575h8.048l-4.008-10.575Z" fill="#142a4d" fill-rule="evenodd" data-name="パス 33559"/><path d="M134.328 53.397V32.343h3.41v18.213h8.742v2.841h-12.152Z" fill="#142a4d" fill-rule="evenodd" data-name="パス 33560"/><path d="M154.624 53.397V32.343h12.12V34.9h-8.711v6.502h8.301v2.494h-8.301v6.944h9.028v2.557h-12.437Z" fill="#142a4d" fill-rule="evenodd" data-name="パス 33561"/><path d="M189 47.558c0 1.052-.216 1.967-.647 2.745-.432.78-1 1.42-1.704 1.926-.705.505-1.52.883-2.447 1.137-.926.252-1.883.378-2.872.378-.968 0-1.931-.068-2.888-.204a13.515 13.515 0 0 1-2.794-.71l.156-2.937a8.99 8.99 0 0 0 2.572.979c.895.19 1.816.284 2.763.284a7.01 7.01 0 0 0 1.642-.19 3.97 3.97 0 0 0 1.389-.615c.4-.284.721-.647.963-1.089.242-.442.363-.978.363-1.61 0-.442-.11-.836-.332-1.184a3.746 3.746 0 0 0-.883-.947 9.362 9.362 0 0 0-1.215-.789 26.899 26.899 0 0 0-1.326-.679l-2.146-1.072c-.569-.274-1.1-.573-1.594-.9a6.627 6.627 0 0 1-1.295-1.105 4.677 4.677 0 0 1-.867-1.405c-.211-.525-.317-1.125-.317-1.798 0-1.031.232-1.91.696-2.636a5.708 5.708 0 0 1 1.798-1.784 8.02 8.02 0 0 1 2.462-1.01c.905-.21 1.81-.315 2.715-.315.8 0 1.594.052 2.383.158.79.105 1.563.273 2.32.505l-.19 2.778a7.796 7.796 0 0 0-2.154-.664 14.103 14.103 0 0 0-2.248-.19 8.52 8.52 0 0 0-1.537.143 4.675 4.675 0 0 0-1.41.489 2.984 2.984 0 0 0-1.03.915c-.264.38-.395.863-.395 1.452 0 .4.094.753.285 1.058.19.306.432.584.728.836.296.253.638.48 1.03.68.39.2.775.394 1.155.584l2.248 1.072a19.49 19.49 0 0 1 1.79.947c.558.337 1.05.732 1.472 1.184.421.453.753.968.996 1.546.243.58.365 1.259.365 2.037Z" fill="#142a4d" fill-rule="evenodd" data-name="パス 33562"/><path d="M101.2 79.955c0 1.052-.216 1.968-.648 2.746-.43.78-.999 1.42-1.703 1.926-.706.505-1.521.883-2.447 1.135-.926.253-1.883.38-2.872.38-.968 0-1.931-.07-2.888-.206a13.45 13.45 0 0 1-2.794-.71l.156-2.935c.82.462 1.678.789 2.572.978.895.189 1.816.284 2.763.284.57 0 1.116-.063 1.642-.19.526-.125.99-.33 1.389-.615.4-.284.722-.647.963-1.089.242-.442.364-.978.364-1.61 0-.44-.111-.836-.333-1.184a3.733 3.733 0 0 0-.883-.946 9.32 9.32 0 0 0-1.215-.789 26.896 26.896 0 0 0-1.326-.679l-2.146-1.073c-.569-.273-1.1-.572-1.594-.9a6.562 6.562 0 0 1-1.294-1.104 4.683 4.683 0 0 1-.868-1.405c-.211-.526-.316-1.125-.316-1.799 0-1.03.231-1.91.695-2.635a5.686 5.686 0 0 1 1.799-1.783 7.973 7.973 0 0 1 2.461-1.01c.905-.21 1.81-.317 2.715-.317.799 0 1.594.054 2.383.159.79.105 1.563.273 2.32.505l-.19 2.777a7.817 7.817 0 0 0-2.154-.663 14.172 14.172 0 0 0-2.248-.189c-.507 0-1.02.047-1.537.141a4.684 4.684 0 0 0-1.41.49 2.998 2.998 0 0 0-1.03.915c-.263.38-.395.863-.395 1.452 0 .4.094.752.285 1.057.19.306.432.585.728.837.296.253.639.478 1.03.68.39.199.775.393 1.155.582l2.248 1.073c.633.295 1.23.612 1.79.947a6.85 6.85 0 0 1 1.472 1.184c.421.453.753.969.996 1.547.243.58.365 1.257.365 2.036Z" fill="#142a4d" fill-rule="evenodd" data-name="パス 33563"/><path d="M122.433 85.226c-.737.337-1.573.573-2.51.71-.936.137-1.815.205-2.635.205-1.684 0-3.21-.247-4.577-.741-1.368-.495-2.536-1.21-3.503-2.146-.969-.937-1.72-2.078-2.258-3.425-.536-1.346-.804-2.862-.804-4.545 0-1.6.278-3.067.836-4.404.557-1.336 1.331-2.483 2.32-3.44.99-.958 2.163-1.7 3.52-2.225 1.357-.526 2.845-.79 4.466-.79.8 0 1.662.063 2.589.19.925.126 1.756.327 2.493.6l-.19 2.778a9.391 9.391 0 0 0-2.194-.664c-.81-.147-1.583-.22-2.32-.22-1.241 0-2.35.205-3.329.615-.978.41-1.805.979-2.478 1.705-.674.726-1.194 1.589-1.563 2.587-.368 1-.552 2.09-.552 3.268 0 1.22.174 2.33.52 3.33.349.999.858 1.857 1.532 2.572a6.982 6.982 0 0 0 2.462 1.672c.968.4 2.083.6 3.345.6.8 0 1.595-.068 2.383-.204a8.831 8.831 0 0 0 2.257-.71l.19 2.682Z" fill="#142a4d" fill-rule="evenodd" data-name="パス 33564"/><path d="M148.344 75.284c0 1.536-.211 2.962-.63 4.277-.423 1.315-1.043 2.461-1.863 3.44-.822.978-1.848 1.746-3.078 2.304-1.231.557-2.656.836-4.276.836-1.642 0-3.078-.273-4.31-.82-1.23-.547-2.256-1.305-3.077-2.273-.82-.967-1.436-2.115-1.847-3.44-.41-1.326-.615-2.767-.615-4.324 0-1.516.21-2.93.631-4.246.42-1.315 1.047-2.462 1.878-3.44a8.904 8.904 0 0 1 3.078-2.32c1.22-.568 2.64-.853 4.262-.853 1.64 0 3.076.274 4.307.822 1.23.546 2.257 1.304 3.078 2.272.82.968 1.436 2.114 1.846 3.44.411 1.325.616 2.768.616 4.325Zm-3.599 0c0-.99-.11-1.973-.33-2.952a8.453 8.453 0 0 0-1.074-2.65 6.013 6.013 0 0 0-1.926-1.926c-.789-.495-1.762-.742-2.918-.742-1.137 0-2.1.252-2.889.757a6.158 6.158 0 0 0-1.925 1.942 8.745 8.745 0 0 0-1.09 2.65 12.639 12.639 0 0 0-.346 2.92c0 .969.114 1.942.346 2.92.232.978.6 1.863 1.106 2.652a6.334 6.334 0 0 0 1.94 1.94c.79.506 1.741.758 2.858.758 1.156 0 2.13-.247 2.918-.741a6.02 6.02 0 0 0 1.926-1.926 8.474 8.474 0 0 0 1.073-2.652c.221-.978.331-1.962.331-2.95Z" fill="#142a4d" fill-rule="evenodd" data-name="パス 33565"/><path d="m165.72 85.794-2.587-6.534c-.211-.525-.415-.967-.614-1.325a2.869 2.869 0 0 0-.69-.853c-.262-.21-.59-.357-.988-.442-.398-.083-.889-.126-1.475-.126h-1.694v9.28h-3.41V64.74h7.008c.884 0 1.736.1 2.557.3.82.2 1.546.517 2.178.948a4.772 4.772 0 0 1 1.515 1.708c.38.706.568 1.565.568 2.577 0 .695-.126 1.327-.379 1.896-.252.57-.6 1.064-1.042 1.486a5.7 5.7 0 0 1-1.546 1.043c-.59.274-1.21.464-1.862.569.863.168 1.515.493 1.956.976.443.484.822 1.114 1.137 1.89l3.125 7.66h-3.756Zm-1.135-15.261c0-.677-.126-1.231-.378-1.664a2.737 2.737 0 0 0-1.005-1.016 4.163 4.163 0 0 0-1.477-.492 12.103 12.103 0 0 0-1.791-.127h-2.262v6.787h2.137c.565 0 1.136-.053 1.712-.158a4.465 4.465 0 0 0 1.54-.572c.45-.275.816-.634 1.1-1.078.282-.443.424-1.004.424-1.68Z" fill="#142a4d" fill-rule="evenodd" data-name="パス 33566"/><path d="M176.005 85.794V64.74h12.12v2.557h-8.711V73.8h8.301v2.494h-8.301v6.944h9.027v2.556h-12.436Z" fill="#142a4d" fill-rule="evenodd" data-name="パス 33567"/></g></g><g data-name="グループ 23066"><path d="m66.778 36.825-14.132 10.42L77.753 65.84c.603-2.22.93-4.554.93-6.965 0-9.221-4.71-17.34-11.856-22.088l-.05.036.001.003Z" fill="#1788dd" fill-rule="evenodd" data-name="パス 33571"/><path d="M66.827 36.786c-.046-.031-.096-.058-.143-.088l.092.124.051-.036Z" fill="#e73e8f" fill-rule="evenodd" data-name="パス 33572"/><path d="M65.904 36.219a26.347 26.347 0 0 0-13.722-3.847 26.382 26.382 0 0 0-16.83 6.039l5.646 16.171 24.906-18.363Z" fill="#e73e8f" fill-rule="evenodd" data-name="パス 33573"/><path d="M54.35 85.286c10.892-.882 19.92-8.35 23.102-18.416L63.932 56.85l-9.581 28.435Z" fill="#e3e100" fill-rule="evenodd" data-name="パス 33574"/><path d="M27.942 69.599c4.118 9.293 13.42 15.776 24.24 15.776.362 0 .724-.008 1.083-.022l5.316-15.775-30.639.02Z" fill="#00aa9f" fill-rule="evenodd" data-name="パス 33575"/><path d="M34.532 39.118C29.104 43.97 25.68 51.02 25.68 58.874c0 3.432.659 6.708 1.847 9.719l17.154-.054-10.149-29.42Z" fill="#0000d4" fill-rule="evenodd" data-name="パス 33576"/><path d="m45.155 69.545.011.032h.102l.096-.033h-.21Z" fill="#fff" fill-rule="evenodd" data-name="パス 33577"/><path d="m45.177 69.609.09-.032h-.1l.01.032Z" fill="#fff" fill-rule="evenodd" data-name="パス 33578"/><path d="M63.918 56.841 54.3 85.291l.05-.005 9.582-28.435-.014-.01Z" fill="#fff" fill-rule="evenodd" data-name="パス 33579"/><path d="m27.932 69.578.01.02 6.75-.02h-6.76Z" fill="#fff" fill-rule="evenodd" data-name="パス 33580"/><path d="m63.932 56.851.069-.203-.016-.005-.067.198.014.01Z" fill="#fff" fill-rule="evenodd" data-name="パス 33581"/></g></g></g></svg>